<svg width="100%" viewBox="0 0 900 480" xmlns="http://www.w3.org/2000/svg">
<rect width="900" height="480" fill="#F3EEE3"/>

<rect x="30" y="28" width="46" height="46" rx="7" fill="#1A1D29"/>
<path d="M53 40 L65 52 L53 64 L41 52 Z" fill="none" stroke="#C9A445" stroke-width="2.4"/>
<circle cx="53" cy="52" r="4.2" fill="#C9A445"/>

<text x="96" y="46" font-family="Liberation Sans, sans-serif" font-size="12" font-weight="bold" fill="#8A8570" letter-spacing="2">HOW IT WORKS</text>
<text x="96" y="70" font-family="DejaVu Serif, serif" font-size="26" font-weight="bold" fill="#1A1D29">Identity/access <tspan fill="#B8963C">agent architecture</tspan></text>

<line x1="30" y1="96" x2="870" y2="96" stroke="#D8CBA6" stroke-width="1"/>

<defs>
<marker id="garrow6" viewBox="0 0 10 10" refX="8" refY="5" markerWidth="6" markerHeight="6" orient="auto-start-reverse">
<path d="M2 1L8 5L2 9" fill="none" stroke="#B8963C" stroke-width="1.6" stroke-linecap="round" stroke-linejoin="round"/>
</marker>
</defs>

<line x1="450" y1="176" x2="450" y2="220" stroke="#B8963C" stroke-width="1.4" marker-end="url(#garrow6)"/>
<line x1="450" y1="296" x2="450" y2="340" stroke="#B8963C" stroke-width="1.4" marker-end="url(#garrow6)"/>

<!-- IdP APIs -->
<rect x="330" y="120" width="240" height="56" rx="10" fill="#FFFFFF" stroke="#D8CBA6" stroke-width="1.2"/>
<circle cx="362" cy="148" r="18" fill="#1A1D29"/>
<circle cx="362" cy="144" r="5" fill="none" stroke="#C9A445" stroke-width="1.3"/>
<path d="M354 156 q8 -8 16 0" fill="none" stroke="#C9A445" stroke-width="1.3"/>
<text x="392" y="144" font-family="Liberation Sans, sans-serif" font-size="16" font-weight="bold" fill="#1A1D29">IdP APIs</text>
<text x="392" y="162" font-family="Liberation Sans, sans-serif" font-size="12" fill="#8A8570">Okta / Entra ID</text>

<!-- Review agent -->
<rect x="330" y="240" width="240" height="56" rx="10" fill="#EEEDFE" stroke="#8A7FD1" stroke-width="1.2"/>
<circle cx="362" cy="268" r="18" fill="#1A1D29"/>
<rect x="354" y="260" width="16" height="16" rx="3" fill="none" stroke="#C9A445" stroke-width="1.3"/>
<line x1="358" y1="260" x2="358" y2="256" stroke="#C9A445" stroke-width="1.3"/>
<line x1="366" y1="260" x2="366" y2="256" stroke="#C9A445" stroke-width="1.3"/>
<text x="392" y="264" font-family="Liberation Sans, sans-serif" font-size="16" font-weight="bold" fill="#3C3489">Review agent</text>
<text x="392" y="282" font-family="Liberation Sans, sans-serif" font-size="12" fill="#534AB7">Claude Sonnet 5</text>

<!-- Recertification report -->
<rect x="330" y="356" width="240" height="56" rx="10" fill="#FAEEDA" stroke="#C9A445" stroke-width="1.2"/>
<circle cx="362" cy="384" r="18" fill="#1A1D29"/>
<rect x="354" y="378" width="14" height="18" rx="2" fill="none" stroke="#C9A445" stroke-width="1.3"/>
<line x1="357" y1="383" x2="365" y2="383" stroke="#C9A445" stroke-width="1"/>
<line x1="357" y1="388" x2="365" y2="388" stroke="#C9A445" stroke-width="1"/>
<text x="392" y="378" font-family="Liberation Sans, sans-serif" font-size="16" font-weight="bold" fill="#633806">Recertification report</text>
<text x="392" y="396" font-family="Liberation Sans, sans-serif" font-size="12" fill="#854F0B">Propose-only — human approves</text>

<rect x="30" y="442" width="840" height="34" rx="6" fill="#1A1D29"/>
<circle cx="52" cy="459" r="9" fill="none" stroke="#C9A445" stroke-width="1.3"/>
<path d="M49 459 L52 455.5 L55 459 L52 462.5 Z" fill="#C9A445"/>
<text x="72" y="464" font-family="Liberation Sans, sans-serif" font-size="12" font-weight="bold" fill="#C9A445" letter-spacing="1.5">AGENTICSECOPS: BUILD VS. BUY — MODULE 6</text>
</svg>
